<svg width="11" height="6" viewBox="0 0 11 6" fill="none" xmlns="http://www.w3.org/2000/svg">
<path d="M5.20587 1.03503L0.891499 5.21478C0.819476 5.28452 0.779297 5.37717 0.779297 5.47353C0.779297 5.56988 0.819476 5.66253 0.891499 5.73228L0.896374 5.73678C0.93129 5.7707 0.973318 5.79772 1.0199 5.81618C1.06648 5.83464 1.11665 5.84416 1.16734 5.84416C1.21804 5.84416 1.2682 5.83464 1.31479 5.81618C1.36137 5.79772 1.4034 5.7707 1.43831 5.73678L5.50081 1.80078L9.56169 5.73678C9.5966 5.7707 9.63863 5.79772 9.68521 5.81618C9.7318 5.83464 9.78196 5.84416 9.83265 5.84416C9.88335 5.84416 9.93351 5.83464 9.9801 5.81618C10.0267 5.79772 10.0687 5.7707 10.1036 5.73678L10.1085 5.73228C10.1805 5.66253 10.2207 5.56988 10.2207 5.47353C10.2207 5.37717 10.1805 5.28452 10.1085 5.21478L5.79412 1.03503C5.75618 0.998267 5.71055 0.969003 5.65999 0.949007C5.60943 0.929012 5.555 0.918701 5.5 0.918701C5.445 0.918701 5.39056 0.929012 5.34001 0.949007C5.28945 0.969003 5.24382 0.998267 5.20587 1.03503Z" fill="#153C3F"/>
</svg>
