<svg width="26" height="26" viewBox="0 0 26 26" fill="none" xmlns="http://www.w3.org/2000/svg">
<path d="M14.3662 7.63379L19.1662 12.4338C19.2407 12.5081 19.2998 12.5964 19.3401 12.6936C19.3805 12.7908 19.4012 12.895 19.4012 13.0002C19.4012 13.1054 19.3805 13.2096 19.3401 13.3068C19.2998 13.404 19.2407 13.4923 19.1662 13.5666L14.3662 18.3666C14.216 18.5168 14.0122 18.6012 13.7998 18.6012C13.5874 18.6012 13.3836 18.5168 13.2334 18.3666C13.0832 18.2164 12.9988 18.0126 12.9988 17.8002C12.9988 17.5878 13.0832 17.384 13.2334 17.2338L16.6686 13.8002L7.3998 13.8002C7.18763 13.8002 6.98415 13.7159 6.83412 13.5659C6.68409 13.4159 6.59981 13.2124 6.59981 13.0002C6.59981 12.788 6.68409 12.5845 6.83412 12.4345C6.98415 12.2845 7.18763 12.2002 7.3998 12.2002L16.6686 12.2002L13.2334 8.76659C13.0832 8.61638 12.9988 8.41264 12.9988 8.20019C12.9988 7.98775 13.0832 7.78401 13.2334 7.63379C13.3836 7.48358 13.5874 7.39918 13.7998 7.39918C14.0122 7.39918 14.216 7.48358 14.3662 7.63379ZM25.7998 13.0002C25.7998 9.60542 24.4512 6.34969 22.0508 3.94923C19.6503 1.54876 16.3946 0.200195 12.9998 0.200195C9.60503 0.200195 6.3493 1.54876 3.94884 3.94923C1.54837 6.34969 0.199806 9.60542 0.199806 13.0002C0.199806 16.395 1.54837 19.6507 3.94884 22.0512C6.3493 24.4516 9.60503 25.8002 12.9998 25.8002C16.3946 25.8002 19.6503 24.4516 22.0508 22.0512C24.4512 19.6507 25.7998 16.395 25.7998 13.0002ZM12.9998 1.80019C14.4706 1.80019 15.927 2.08989 17.2859 2.65274C18.6447 3.2156 19.8794 4.04058 20.9194 5.0806C21.9594 6.12061 22.7844 7.35529 23.3473 8.71414C23.9101 10.073 24.1998 11.5294 24.1998 13.0002C24.1998 14.471 23.9101 15.9274 23.3473 17.2862C22.7844 18.6451 21.9594 19.8798 20.9194 20.9198C19.8794 21.9598 18.6447 22.7848 17.2859 23.3476C15.927 23.9105 14.4706 24.2002 12.9998 24.2002C10.0294 24.2002 7.18062 23.0202 5.08021 20.9198C2.9798 18.8194 1.79981 15.9706 1.79981 13.0002C1.79981 10.0298 2.9798 7.18101 5.08021 5.0806C7.18062 2.98019 10.0294 1.80019 12.9998 1.80019Z" fill="#153C3F"/>
</svg>
