<svg width="11" height="6" viewBox="0 0 11 6" fill="none" xmlns="http://www.w3.org/2000/svg">
<path d="M5.79413 4.96497L10.1085 0.785223C10.1805 0.715482 10.2207 0.622827 10.2207 0.526474C10.2207 0.43012 10.1805 0.337465 10.1085 0.267724L10.1036 0.263224C10.0687 0.229297 10.0267 0.202282 9.9801 0.183822C9.93352 0.165362 9.88335 0.155842 9.83266 0.155842C9.78196 0.155842 9.7318 0.165362 9.68521 0.183822C9.63863 0.202282 9.5966 0.229297 9.56169 0.263224L5.49919 4.19922L1.43831 0.263224C1.4034 0.229298 1.36137 0.202283 1.31479 0.183823C1.2682 0.165363 1.21804 0.155843 1.16734 0.155843C1.11665 0.155843 1.06649 0.165363 1.0199 0.183823C0.97332 0.202283 0.931292 0.229298 0.896376 0.263224L0.891501 0.267725C0.819477 0.337466 0.779297 0.430121 0.779297 0.526474C0.779297 0.622827 0.819477 0.715483 0.891501 0.785224L5.20588 4.96497C5.24382 5.00173 5.28945 5.031 5.34001 5.05099C5.39057 5.07099 5.445 5.0813 5.5 5.0813C5.555 5.0813 5.60944 5.07099 5.65999 5.05099C5.71055 5.031 5.75618 5.00173 5.79413 4.96497Z" fill="#153C3F"/>
</svg>
