<svg width="26" height="26" viewBox="0 0 26 26" fill="none" xmlns="http://www.w3.org/2000/svg">
<path d="M11.6338 18.3662L6.83379 13.5662C6.75929 13.4919 6.70018 13.4036 6.65985 13.3064C6.61952 13.2092 6.59876 13.105 6.59876 12.9998C6.59876 12.8946 6.61952 12.7904 6.65985 12.6932C6.70018 12.596 6.75929 12.5077 6.83379 12.4334L11.6338 7.63341C11.784 7.48319 11.9878 7.3988 12.2002 7.3988C12.4126 7.3988 12.6164 7.48319 12.7666 7.63341C12.9168 7.78362 13.0012 7.98736 13.0012 8.19981C13.0012 8.41225 12.9168 8.61599 12.7666 8.76621L9.33139 12.1998L18.6002 12.1998C18.8124 12.1998 19.0159 12.2841 19.1659 12.4341C19.3159 12.5841 19.4002 12.7876 19.4002 12.9998C19.4002 13.212 19.3159 13.4155 19.1659 13.5655C19.0159 13.7155 18.8124 13.7998 18.6002 13.7998L9.33139 13.7998L12.7666 17.2334C12.9168 17.3836 13.0012 17.5874 13.0012 17.7998C13.0012 18.0122 12.9168 18.216 12.7666 18.3662C12.6164 18.5164 12.4126 18.6008 12.2002 18.6008C11.9878 18.6008 11.784 18.5164 11.6338 18.3662ZM0.200195 12.9998C0.200195 16.3946 1.54876 19.6503 3.94923 22.0508C6.34969 24.4512 9.60542 25.7998 13.0002 25.7998C16.395 25.7998 19.6507 24.4512 22.0512 22.0508C24.4516 19.6503 25.8002 16.3946 25.8002 12.9998C25.8002 9.60503 24.4516 6.3493 22.0512 3.94884C19.6507 1.54837 16.395 0.199806 13.0002 0.199806C9.60542 0.199806 6.34969 1.54837 3.94923 3.94884C1.54876 6.3493 0.200195 9.60503 0.200195 12.9998ZM13.0002 24.1998C11.5294 24.1998 10.073 23.9101 8.71414 23.3473C7.35529 22.7844 6.12061 21.9594 5.0806 20.9194C4.04058 19.8794 3.2156 18.6447 2.65274 17.2859C2.08989 15.927 1.80019 14.4706 1.80019 12.9998C1.80019 11.529 2.08989 10.0726 2.65274 8.71375C3.2156 7.3549 4.04058 6.12023 5.0806 5.08021C6.12061 4.04019 7.35529 3.21521 8.71414 2.65235C10.073 2.0895 11.5294 1.79981 13.0002 1.79981C15.9706 1.79981 18.8194 2.9798 20.9198 5.08021C23.0202 7.18062 24.2002 10.0294 24.2002 12.9998C24.2002 15.9702 23.0202 18.819 20.9198 20.9194C18.8194 23.0198 15.9706 24.1998 13.0002 24.1998Z" fill="#153C3F"/>
</svg>
