<svg width="14" height="14" viewBox="0 0 14 14" fill="none" xmlns="http://www.w3.org/2000/svg">
<g clip-path="url(#clip0_34_1336)">
<path d="M6.99984 9.33333C8.2885 9.33333 9.33317 8.28866 9.33317 7C9.33317 5.71133 8.2885 4.66666 6.99984 4.66666C5.71117 4.66666 4.6665 5.71133 4.6665 7C4.6665 8.28866 5.71117 9.33333 6.99984 9.33333Z" stroke="currentColor" stroke-linecap="round" stroke-linejoin="round"/>
<path d="M9.33318 4.66667V7.58333C9.33318 8.04746 9.51755 8.49258 9.84574 8.82077C10.1739 9.14896 10.619 9.33333 11.0832 9.33333C11.5473 9.33333 11.9924 9.14896 12.3206 8.82077C12.6488 8.49258 12.8332 8.04746 12.8332 7.58333V7C12.8331 5.68344 12.3876 4.40561 11.5693 3.37431C10.7509 2.34301 9.60766 1.61888 8.32555 1.31968C7.04343 1.02047 5.6978 1.16378 4.50746 1.7263C3.31712 2.28882 2.35207 3.23748 1.76924 4.41801C1.18641 5.59854 1.02007 6.94151 1.29727 8.22857C1.57447 9.51562 2.27891 10.6711 3.29604 11.507C4.31317 12.3429 5.58318 12.8102 6.89955 12.8328C8.21592 12.8555 9.50124 12.4321 10.5465 11.6317" stroke="currentColor" stroke-linecap="round" stroke-linejoin="round"/>
</g>
<defs>
<clipPath id="clip0_34_1336">
<rect width="14" height="14" fill="white"/>
</clipPath>
</defs>
</svg>
