<svg width="80" height="80" viewBox="0 0 80 80" fill="none" xmlns="http://www.w3.org/2000/svg">
<path d="M6.6665 10H26.6665C30.2027 10 33.5941 11.4048 36.0946 13.9052C38.5951 16.4057 39.9998 19.7971 39.9998 23.3333V70C39.9998 67.3478 38.9463 64.8043 37.0709 62.9289C35.1955 61.0536 32.652 60 29.9998 60H6.6665V10Z" stroke="#153C3F" stroke-width="6" stroke-linecap="round" stroke-linejoin="round"/>
<path d="M73.3333 10H53.3333C49.7971 10 46.4057 11.4048 43.9052 13.9052C41.4048 16.4057 40 19.7971 40 23.3333V70C40 67.3478 41.0536 64.8043 42.9289 62.9289C44.8043 61.0536 47.3478 60 50 60H73.3333V10Z" stroke="#153C3F" stroke-width="6" stroke-linecap="round" stroke-linejoin="round"/>
</svg>
