<svg width="8" height="9" viewBox="0 0 8 9" fill="none" xmlns="http://www.w3.org/2000/svg">
<path d="M6.91667 1.16683H6.5V0.333496H5.66667V1.16683H2.33333V0.333496H1.5V1.16683H1.08333C0.620833 1.16683 0.254167 1.54183 0.254167 2.00016L0.25 7.8335C0.25 8.05451 0.337797 8.26647 0.494078 8.42275C0.650358 8.57903 0.86232 8.66683 1.08333 8.66683H6.91667C7.375 8.66683 7.75 8.29183 7.75 7.8335V2.00016C7.75 1.54183 7.375 1.16683 6.91667 1.16683ZM6.91667 7.8335H1.08333V3.66683H6.91667V7.8335ZM2.75 5.3335H1.91667V4.50016H2.75V5.3335ZM4.41667 5.3335H3.58333V4.50016H4.41667V5.3335ZM6.08333 5.3335H5.25V4.50016H6.08333V5.3335ZM2.75 7.00016H1.91667V6.16683H2.75V7.00016ZM4.41667 7.00016H3.58333V6.16683H4.41667V7.00016ZM6.08333 7.00016H5.25V6.16683H6.08333V7.00016Z" fill="#153C3F"/>
</svg>
