<svg width="95" height="94" viewBox="0 0 95 94" fill="none" xmlns="http://www.w3.org/2000/svg">
<path fill-rule="evenodd" clip-rule="evenodd" d="M45.5993 0.698684C46.7958 0.100439 48.2041 0.100439 49.4006 0.698684L91.9006 21.9487C93.3404 22.6686 94.25 24.1402 94.25 25.75C94.25 27.3598 93.3404 28.8314 91.9006 29.5513L49.4006 50.8013C48.2041 51.3996 46.7958 51.3996 45.5993 50.8013L3.0993 29.5513C1.65946 28.8314 0.749954 27.3598 0.749954 25.75C0.749954 24.1402 1.65946 22.6686 3.0993 21.9487L45.5993 0.698684ZM14.5032 25.75L47.5 42.2484L80.4967 25.75L47.5 9.25164L14.5032 25.75Z" fill="#5E45FF"/>
<path fill-rule="evenodd" clip-rule="evenodd" d="M1.19864 66.3493C2.24834 64.2499 4.8012 63.399 6.90061 64.4487L47.5 84.7484L88.0993 64.4487C90.1987 63.399 92.7516 64.2499 93.8013 66.3493C94.851 68.4487 94 71.0016 91.9006 72.0513L49.4006 93.3013C48.2041 93.8996 46.7958 93.8996 45.5993 93.3013L3.0993 72.0513C0.999888 71.0016 0.148935 68.4487 1.19864 66.3493Z" fill="#5E45FF"/>
<path fill-rule="evenodd" clip-rule="evenodd" d="M1.19864 45.0993C2.24834 42.9999 4.8012 42.149 6.90061 43.1987L47.5 63.4984L88.0993 43.1987C90.1987 42.149 92.7516 42.9999 93.8013 45.0993C94.851 47.1987 94 49.7516 91.9006 50.8013L49.4006 72.0513C48.2041 72.6496 46.7958 72.6496 45.5993 72.0513L3.0993 50.8013C0.999888 49.7516 0.148935 47.1987 1.19864 45.0993Z" fill="#5E45FF"/>
</svg>
