<svg width="80" height="80" viewBox="0 0 80 80" fill="none" xmlns="http://www.w3.org/2000/svg">
<path fill-rule="evenodd" clip-rule="evenodd" d="M52.2097 12.5781C46.3005 9.94512 39.6985 9.29284 33.3882 10.7186C27.078 12.1443 21.3977 15.5716 17.1945 20.4893C12.9913 25.4071 10.4904 31.5518 10.0647 38.0071C9.63905 44.4623 11.3115 50.8822 14.8326 56.3093C18.3536 61.7364 23.5347 65.8799 29.6031 68.1219C35.6715 70.3638 42.302 70.5841 48.5058 68.7498C54.7095 66.9155 60.1542 63.125 64.0277 57.9436C67.9012 52.7621 69.996 46.4674 69.9997 39.9981V36.9334C69.9997 35.0924 71.4921 33.6 73.333 33.6C75.174 33.6 76.6664 35.0924 76.6664 36.9334V40C76.6618 47.9069 74.1015 55.6024 69.3672 61.9353C64.633 68.2682 57.9784 72.901 50.396 75.1429C42.8136 77.3848 34.7096 77.1156 27.2927 74.3754C19.8758 71.6352 13.5434 66.571 9.23986 59.9378C4.93632 53.3047 2.89224 45.4582 3.41249 37.5684C3.93274 29.6787 6.98943 22.1685 12.1267 16.1579C17.264 10.1473 24.2066 5.95833 31.919 4.21579C39.6315 2.47326 47.7007 3.27049 54.923 6.48859C56.6046 7.23786 57.3604 9.20844 56.6111 10.89C55.8619 12.5716 53.8913 13.3274 52.2097 12.5781Z" fill="#9C8DFD"/>
<path fill-rule="evenodd" clip-rule="evenodd" d="M75.6889 10.9752C76.9913 12.2762 76.9923 14.3868 75.6912 15.6892L42.3579 49.0559C41.7329 49.6815 40.8849 50.0331 40.0005 50.0334C39.1162 50.0336 38.268 49.6824 37.6427 49.057L27.6427 39.057C26.3409 37.7553 26.3409 35.6447 27.6427 34.343C28.9444 33.0413 31.055 33.0413 32.3567 34.343L39.9985 41.9848L70.9748 10.9775C72.2759 9.67511 74.3865 9.67406 75.6889 10.9752Z" fill="#9C8DFD"/>
</svg>
