<svg width="166" height="166" viewBox="0 0 166 166" fill="none" xmlns="http://www.w3.org/2000/svg">
<path fill-rule="evenodd" clip-rule="evenodd" d="M110.473 21.3007C97.1768 15.3765 82.3223 13.9089 68.1243 17.1167C53.9263 20.3246 41.1456 28.036 31.6884 39.101C22.2312 50.1659 16.6041 63.9916 15.6463 78.5159C14.6886 93.0402 18.4516 107.485 26.374 119.696C34.2964 131.907 45.9539 141.23 59.6077 146.274C73.2615 151.319 88.1802 151.814 102.139 147.687C116.097 143.56 128.348 135.031 137.063 123.373C145.778 111.715 150.492 97.5516 150.5 82.9957V76.1C150.5 71.9579 153.858 68.6 158 68.6C162.142 68.6 165.5 71.9579 165.5 76.1V83C165.49 100.791 159.729 118.105 149.077 132.354C138.425 146.603 123.452 157.027 106.392 162.071C89.3313 167.116 71.0974 166.51 54.4094 160.345C37.7214 154.179 23.4734 142.785 13.7904 127.86C4.10745 112.936 -0.491723 95.2808 0.678833 77.5289C1.84939 59.777 8.72696 42.879 20.2858 29.3552C31.8447 15.8313 47.4655 6.40622 64.8186 2.48552C82.1716 -1.43518 100.327 0.358593 116.578 7.59932C120.361 9.28517 122.062 13.719 120.376 17.5025C118.69 21.2861 114.256 22.9866 110.473 21.3007Z" fill="#E7F4E5"/>
<path fill-rule="evenodd" clip-rule="evenodd" d="M163.301 17.6941C166.231 20.6215 166.233 25.3703 163.306 28.3007L88.306 103.376C86.8997 104.783 84.9917 105.575 83.0019 105.575C81.0122 105.576 79.1037 104.785 77.6967 103.378L55.1967 80.8783C52.2678 77.9494 52.2678 73.2007 55.1967 70.2717C58.1257 67.3428 62.8744 67.3428 65.8033 70.2717L82.9974 87.4658L152.694 17.6994C155.622 14.769 160.37 14.7666 163.301 17.6941Z" fill="#E7F4E5"/>
</svg>
