<svg width="10" height="11" viewBox="0 0 10 11" fill="none" xmlns="http://www.w3.org/2000/svg">
<path d="M10 5.5C10 6.82608 9.47322 8.09785 8.53553 9.03553C7.59785 9.97322 6.32608 10.5 5 10.5C3.67392 10.5 2.40215 9.97322 1.46447 9.03553C0.526784 8.09785 0 6.82608 0 5.5C0 4.17392 0.526784 2.90215 1.46447 1.96447C2.40215 1.02678 3.67392 0.5 5 0.5C6.32608 0.5 7.59785 1.02678 8.53553 1.96447C9.47322 2.90215 10 4.17392 10 5.5ZM5 2.6875C5 2.60462 4.96708 2.52513 4.90847 2.46653C4.84987 2.40792 4.77038 2.375 4.6875 2.375C4.60462 2.375 4.52513 2.40792 4.46653 2.46653C4.40792 2.52513 4.375 2.60462 4.375 2.6875V6.125C4.37502 6.18008 4.38959 6.23418 4.41725 6.28182C4.44491 6.32945 4.48467 6.36893 4.5325 6.39625L6.72 7.64625C6.79179 7.68505 6.8759 7.69423 6.95437 7.67183C7.03283 7.64943 7.09942 7.59722 7.1399 7.52637C7.18039 7.45553 7.19156 7.37165 7.17102 7.29268C7.15048 7.21371 7.09987 7.1459 7.03 7.10375L5 5.94375V2.6875Z" fill="#153C3F"/>
</svg>
