<svg width="78" height="94" viewBox="0 0 78 94" fill="none" xmlns="http://www.w3.org/2000/svg">
<path fill-rule="evenodd" clip-rule="evenodd" d="M15.625 8.75C13.9342 8.75 12.3127 9.42165 11.1172 10.6172C9.92165 11.8127 9.25 13.4342 9.25 15.125V65.4353C11.2238 64.4991 13.3987 64 15.625 64H68.75V8.75H15.625ZM77.25 4.5C77.25 2.15279 75.3472 0.25 73 0.25H15.625C11.6799 0.25 7.89639 1.81718 5.10679 4.60679C2.31718 7.39639 0.75 11.1799 0.75 15.125V78.875C0.75 82.8201 2.31718 86.6036 5.10679 89.3932C7.89639 92.1828 11.6799 93.75 15.625 93.75H73C75.3472 93.75 77.25 91.8472 77.25 89.5V4.5ZM68.75 72.5H15.625C13.9342 72.5 12.3127 73.1716 11.1172 74.3672C9.92165 75.5627 9.25 77.1842 9.25 78.875C9.25 80.5658 9.92165 82.1873 11.1172 83.3828C12.3127 84.5784 13.9342 85.25 15.625 85.25H68.75V72.5Z" fill="#5E45FF"/>
</svg>
