<svg width="308" height="546" viewBox="0 0 308 546" fill="none" xmlns="http://www.w3.org/2000/svg">
<path d="M132.119 130.509C139.051 119.398 138.564 105.239 130.885 94.6233L14.3233 -66.5195C0.768707 -85.2584 -27.6286 -84.2918 -39.8579 -64.6753L-149.125 110.595C-156.052 121.706 -155.561 135.864 -147.881 146.477L-31.3356 307.525C-17.7812 326.255 10.6048 325.29 22.8364 305.684L132.119 130.509Z" fill="url(#paint0_linear_145_13719)"/>
<path d="M303.119 355.509C310.051 344.398 309.564 330.239 301.885 319.623L185.323 158.48C171.769 139.742 143.371 140.708 131.142 160.325L21.8753 335.595C14.948 346.706 15.4387 360.864 23.1191 371.477L139.664 532.525C153.219 551.255 181.605 550.29 193.836 530.684L303.119 355.509Z" fill="url(#paint1_linear_145_13719)"/>
<defs>
<linearGradient id="paint0_linear_145_13719" x1="-154" y1="321" x2="229.137" y2="190.493" gradientUnits="userSpaceOnUse">
<stop stop-color="#5E45FF"/>
<stop offset="1" stop-color="#0028B3"/>
</linearGradient>
<linearGradient id="paint1_linear_145_13719" x1="17" y1="546" x2="400.137" y2="415.493" gradientUnits="userSpaceOnUse">
<stop stop-color="#5E45FF"/>
<stop offset="1" stop-color="#0028B3"/>
</linearGradient>
</defs>
</svg>
