<svg width="100" height="172" viewBox="0 0 100 172" fill="none" xmlns="http://www.w3.org/2000/svg">
<path opacity="0.2" d="M57.6128 121.647C62.6962 128.677 63.0183 138.052 58.4301 145.41L-17.3022 266.853C-25.4024 279.842 -44.2069 280.482 -53.1842 268.072L-133.949 156.423C-139.034 149.394 -139.358 140.02 -134.773 132.662L-59.0517 11.153C-50.953 -1.84287 -32.141 -2.48448 -23.1635 9.93151L57.6128 121.647Z" stroke="#7D69FE" stroke-width="2"/>
<path opacity="0.2" d="M75.9086 121.647C80.9965 128.677 81.3189 138.052 76.7266 145.409L0.924858 266.852C-7.18295 279.842 -26.0061 280.483 -34.9921 268.072L-115.831 156.423C-120.92 149.394 -121.245 140.02 -116.655 132.662L-40.8649 11.1533C-32.7586 -1.84289 -13.9279 -2.48469 -4.9418 9.93186L75.9086 121.647Z" stroke="#7D69FE" stroke-width="2"/>
<path opacity="0.2" d="M94.0264 121.647C99.1097 128.677 99.4319 138.052 94.8437 145.41L19.1114 266.853C11.0112 279.842 -7.79334 280.482 -16.7707 268.072L-97.5357 156.423C-102.62 149.394 -102.945 140.02 -98.3592 132.662L-22.6381 11.153C-14.5395 -1.84287 4.27262 -2.48448 13.2501 9.93151L94.0264 121.647Z" stroke="#7D69FE" stroke-width="2"/>
</svg>
