<svg width="21" height="20" viewBox="0 0 21 20" fill="none" xmlns="http://www.w3.org/2000/svg">
<path fill-rule="evenodd" clip-rule="evenodd" d="M2.49199 0.00801945C2.17484 -0.0185659 1.85579 0.0211109 1.55472 0.124633C1.25365 0.228155 0.97726 0.393107 0.743035 0.609284C0.508809 0.82546 0.321746 1.08819 0.193852 1.38058C0.0659586 1.67296 0 1.98871 0 2.30801C0 2.62731 0.0659586 2.94305 0.193852 3.23544C0.321746 3.52782 0.508809 3.79055 0.743035 4.00673C0.97726 4.22291 1.25365 4.38786 1.55472 4.49138C1.85579 4.5949 2.17484 4.63478 2.49199 4.60819C2.80915 4.63478 3.1284 4.5949 3.42947 4.49138C3.73053 4.38786 4.00692 4.22291 4.24115 4.00673C4.47537 3.79055 4.66244 3.52782 4.79033 3.23544C4.91822 2.94305 4.98418 2.62731 4.98418 2.30801C4.98418 1.98871 4.91822 1.67296 4.79033 1.38058C4.66244 1.08819 4.47537 0.82546 4.24115 0.609284C4.00692 0.393107 3.73053 0.228155 3.42947 0.124633C3.1284 0.0211109 2.80915 -0.0185659 2.49199 0.00801945ZM0.271471 19.739H4.64894V6.41942H0.271471V19.739ZM15.3689 6.11477C14.5738 6.08324 13.7854 6.27129 13.0895 6.65851C12.3936 7.04574 11.8172 7.61726 11.4228 8.31067V6.41942H7.06136C7.06136 7.66964 7.06136 19.739 7.06136 19.739H11.3589V12.3338C11.3438 11.9702 11.3924 11.6066 11.5026 11.2599C11.6674 10.7922 11.9724 10.3871 12.3757 10.1002C12.779 9.81322 13.2609 9.6584 13.7553 9.65701C15.3529 9.65701 15.96 10.8752 15.96 12.6704V19.7871H20.3375V12.1575C20.4014 8.0222 18.2446 6.11477 15.3689 6.11477Z" fill="white"/>
</svg>
