<svg width="12" height="13" viewBox="0 0 12 13" fill="none" xmlns="http://www.w3.org/2000/svg">
<path fill-rule="evenodd" clip-rule="evenodd" d="M2.5 6.5C2.22386 6.5 2 6.72386 2 7V10.5C2 10.7761 2.22386 11 2.5 11H9.5C9.77614 11 10 10.7761 10 10.5V7C10 6.72386 9.77614 6.5 9.5 6.5H2.5ZM1 7C1 6.17157 1.67157 5.5 2.5 5.5H9.5C10.3284 5.5 11 6.17157 11 7V10.5C11 11.3284 10.3284 12 9.5 12H2.5C1.67157 12 1 11.3284 1 10.5V7Z" fill="#D6D6D6"/>
<path fill-rule="evenodd" clip-rule="evenodd" d="M6 2C5.46957 2 4.96086 2.21071 4.58579 2.58579C4.21071 2.96086 4 3.46957 4 4V6C4 6.27614 3.77614 6.5 3.5 6.5C3.22386 6.5 3 6.27614 3 6V4C3 3.20435 3.31607 2.44129 3.87868 1.87868C4.44129 1.31607 5.20435 1 6 1C6.79565 1 7.55871 1.31607 8.12132 1.87868C8.68393 2.44129 9 3.20435 9 4V6C9 6.27614 8.77614 6.5 8.5 6.5C8.22386 6.5 8 6.27614 8 6V4C8 3.46957 7.78929 2.96086 7.41421 2.58579C7.03914 2.21071 6.53043 2 6 2Z" fill="#D6D6D6"/>
</svg>
