<svg width="10" height="13" viewBox="0 0 10 13" fill="none" xmlns="http://www.w3.org/2000/svg">
<path d="M8 6.5H2M8 6.5H9.05C9.16935 6.5 9.28381 6.54741 9.3682 6.6318C9.45259 6.71619 9.5 6.83065 9.5 6.95V12.05C9.5 12.1693 9.45259 12.2838 9.3682 12.3682C9.28381 12.4526 9.16935 12.5 9.05 12.5H0.95C0.830653 12.5 0.716193 12.4526 0.631802 12.3682C0.547411 12.2838 0.5 12.1693 0.5 12.05V6.95C0.5 6.83065 0.547411 6.71619 0.631802 6.6318C0.716193 6.54741 0.830653 6.5 0.95 6.5H2H8ZM8 6.5V3.5C8 2.50025 7.4 0.5 5 0.5C2.6 0.5 2 2.50025 2 3.5V6.5H8Z" stroke="#153C3F" stroke-linecap="round" stroke-linejoin="round"/>
</svg>
