<svg width="102" height="86" viewBox="0 0 102 86" fill="none" xmlns="http://www.w3.org/2000/svg">
<path fill-rule="evenodd" clip-rule="evenodd" d="M6.22398 57.724C10.2091 53.7388 15.6141 51.5 21.25 51.5H55.25C60.8859 51.5 66.2909 53.7388 70.276 57.724C74.2612 61.7091 76.5 67.1141 76.5 72.75V81.25C76.5 83.5972 74.5972 85.5 72.25 85.5C69.9028 85.5 68 83.5972 68 81.25V72.75C68 69.3685 66.6567 66.1255 64.2656 63.7344C61.8745 61.3433 58.6315 60 55.25 60H21.25C17.8685 60 14.6255 61.3433 12.2344 63.7344C9.8433 66.1255 8.5 69.3685 8.5 72.75V81.25C8.5 83.5972 6.59721 85.5 4.25 85.5C1.90279 85.5 0 83.5972 0 81.25V72.75C0 67.1141 2.23883 61.7091 6.22398 57.724Z" fill="#5E45FF"/>
<path fill-rule="evenodd" clip-rule="evenodd" d="M38.25 9C31.2084 9 25.5 14.7084 25.5 21.75C25.5 28.7916 31.2084 34.5 38.25 34.5C45.2916 34.5 51 28.7916 51 21.75C51 14.7084 45.2916 9 38.25 9ZM17 21.75C17 10.0139 26.5139 0.5 38.25 0.5C49.9861 0.5 59.5 10.0139 59.5 21.75C59.5 33.4861 49.9861 43 38.25 43C26.5139 43 17 33.4861 17 21.75Z" fill="#5E45FF"/>
<path fill-rule="evenodd" clip-rule="evenodd" d="M80.885 55.24C81.4718 52.9673 83.7898 51.6007 86.0625 52.1875C90.6213 53.3645 94.6601 56.0223 97.5448 59.7435C100.429 63.4647 101.996 68.0385 102 72.7468V81.25C102 83.5972 100.097 85.5 97.75 85.5C95.4028 85.5 93.5 83.5972 93.5 81.25V72.7532V72.7532C93.4976 69.9286 92.5574 67.1835 90.8269 64.9512C89.0961 62.7185 86.6728 61.1238 83.9375 60.4175C81.6648 59.8307 80.2982 57.5127 80.885 55.24Z" fill="#5E45FF"/>
<path fill-rule="evenodd" clip-rule="evenodd" d="M63.8828 4.24833C64.465 1.97447 66.7803 0.603112 69.0542 1.18531C73.6251 2.35566 77.6766 5.01404 80.5697 8.74134C83.4629 12.4686 85.0333 17.0528 85.0333 21.7713C85.0333 26.4897 83.4629 31.0739 80.5697 34.8012C77.6766 38.5285 73.6251 41.1868 69.0542 42.3572C66.7803 42.9394 64.465 41.568 63.8828 39.2942C63.3006 37.0203 64.672 34.705 66.9458 34.1228C69.6884 33.4206 72.1193 31.8256 73.8552 29.5892C75.5911 27.3528 76.5333 24.6023 76.5333 21.7713C76.5333 18.9402 75.5911 16.1897 73.8552 13.9533C72.1193 11.7169 69.6884 10.1219 66.9458 9.41969C64.672 8.83749 63.3006 6.52219 63.8828 4.24833Z" fill="#5E45FF"/>
</svg>
