<svg width="54" height="54" viewBox="0 0 54 54" fill="none" xmlns="http://www.w3.org/2000/svg">
<path d="M27 0.333252C12.28 0.333252 0.333374 12.2799 0.333374 26.9999C0.333374 41.7199 12.28 53.6666 27 53.6666C41.72 53.6666 53.6667 41.7199 53.6667 26.9999C53.6667 12.2799 41.72 0.333252 27 0.333252ZM46.8934 19.3199L39.48 22.3866C38.8121 20.5896 37.7632 18.9584 36.4053 17.6051C35.0474 16.2518 33.4126 15.2084 31.6134 14.5466L34.68 7.13325C40.28 9.26659 44.7334 13.7199 46.8934 19.3199ZM27 34.9999C22.5734 34.9999 19 31.4266 19 26.9999C19 22.5733 22.5734 18.9999 27 18.9999C31.4267 18.9999 35 22.5733 35 26.9999C35 31.4266 31.4267 34.9999 27 34.9999ZM19.3467 7.10659L22.4667 14.5199C20.6462 15.1834 18.9922 16.2356 17.6198 17.6034C16.2474 18.9712 15.1896 20.6217 14.52 22.4399L7.10671 19.3466C8.176 16.563 9.8181 14.035 11.9266 11.9265C14.0352 9.81798 16.5631 8.17588 19.3467 7.10659ZM7.10671 34.6533L14.52 31.5866C15.1849 33.4001 16.2383 35.0463 17.6065 36.4098C18.9746 37.7733 20.6243 38.8211 22.44 39.4799L19.32 46.8932C16.5424 45.8191 14.0205 44.175 11.917 42.0668C9.81343 39.9587 8.17481 37.4333 7.10671 34.6533ZM34.68 46.8932L31.6134 39.4799C33.421 38.8102 35.0612 37.7547 36.4197 36.387C37.7782 35.0193 38.8225 33.3721 39.48 31.5599L46.8934 34.6799C45.8206 37.4541 44.18 39.9735 42.0768 42.0767C39.9736 44.1799 37.4542 45.8204 34.68 46.8932Z" fill="#153C3F"/>
</svg>
