<svg width="21" height="17" viewBox="0 0 21 17" fill="none" xmlns="http://www.w3.org/2000/svg">
<path fill-rule="evenodd" clip-rule="evenodd" d="M20.0502 1.95543C19.3011 2.29706 18.5031 2.51886 17.6856 2.61265C18.5483 2.09051 19.1905 1.26932 19.4909 0.304447C18.6898 0.797417 17.8082 1.14471 16.8868 1.33029C16.5055 0.911633 16.0416 0.577115 15.5246 0.34808C15.0075 0.119044 14.4485 0.000573584 13.8832 0C13.3385 0.00209382 12.7996 0.112051 12.2973 0.323622C11.795 0.535194 11.3393 0.844174 10.9563 1.23286C10.5734 1.62154 10.2707 2.08226 10.0657 2.58859C9.86062 3.09491 9.75724 3.6369 9.76145 4.18341C9.75817 4.50215 9.79587 4.81992 9.87339 5.12904C8.23097 5.0419 6.62509 4.60862 5.16068 3.85744C3.69626 3.10627 2.40604 2.0541 1.37393 0.769336C0.856712 1.68921 0.701174 2.7698 0.937667 3.79894C1.17416 4.82809 1.78567 5.73135 2.65211 6.33118C2.00205 6.3135 1.36597 6.13755 0.798811 5.81835C0.797123 6.77737 1.12525 7.70756 1.7277 8.45214C2.33015 9.19672 3.16998 9.71001 4.1058 9.9055C3.75208 10.0038 3.38657 10.0525 3.01953 10.0499C2.76446 10.0737 2.50777 10.0737 2.2527 10.0499C2.51668 10.8736 3.02855 11.5947 3.7181 12.1143C4.40765 12.6339 5.24082 12.9262 6.10283 12.951C4.63886 14.101 2.83387 14.7272 0.974526 14.7301C0.650112 14.754 0.324414 14.754 0 14.7301C1.90091 15.9701 4.12316 16.6223 6.39049 16.6055C7.93901 16.6099 9.47284 16.3051 10.9029 15.7092C12.333 15.1133 13.6307 14.2381 14.7205 13.1343C15.8102 12.0305 16.6703 10.7203 17.2507 9.27997C17.8311 7.83962 18.1201 6.29785 18.101 4.74437V4.19946C18.8811 3.57639 19.5417 2.81594 20.0502 1.95543Z" fill="white"/>
</svg>
