<svg width="16" height="16" viewBox="0 0 16 16" fill="none" xmlns="http://www.w3.org/2000/svg">
<path fill-rule="evenodd" clip-rule="evenodd" d="M1 9.5C1.41421 9.5 1.75 9.83579 1.75 10.25V13.25C1.75 13.4489 1.82902 13.6397 1.96967 13.7803C2.11032 13.921 2.30109 14 2.5 14H13C13.1989 14 13.3897 13.921 13.5303 13.7803C13.671 13.6397 13.75 13.4489 13.75 13.25V10.25C13.75 9.83579 14.0858 9.5 14.5 9.5C14.9142 9.5 15.25 9.83579 15.25 10.25V13.25C15.25 13.8467 15.0129 14.419 14.591 14.841C14.169 15.2629 13.5967 15.5 13 15.5H2.5C1.90326 15.5 1.33097 15.2629 0.90901 14.841C0.487053 14.419 0.25 13.8467 0.25 13.25V10.25C0.25 9.83579 0.585786 9.5 1 9.5Z" fill="url(#paint0_linear_14_2985)"/>
<path fill-rule="evenodd" clip-rule="evenodd" d="M12.0303 5.53033C11.7374 5.82322 11.2626 5.82322 10.9697 5.53033L7.75 2.31066L4.53033 5.53033C4.23744 5.82322 3.76256 5.82322 3.46967 5.53033C3.17678 5.23744 3.17678 4.76256 3.46967 4.46967L7.21967 0.71967C7.51256 0.426777 7.98744 0.426777 8.28033 0.71967L12.0303 4.46967C12.3232 4.76256 12.3232 5.23744 12.0303 5.53033Z" fill="url(#paint1_linear_14_2985)"/>
<path fill-rule="evenodd" clip-rule="evenodd" d="M7.75 11C7.33579 11 7 10.6642 7 10.25L7 1.25C7 0.835786 7.33579 0.5 7.75 0.5C8.16421 0.5 8.5 0.835786 8.5 1.25L8.5 10.25C8.5 10.6642 8.16421 11 7.75 11Z" fill="url(#paint2_linear_14_2985)"/>
<defs>
<linearGradient id="paint0_linear_14_2985" x1="0.25" y1="15.5" x2="18.3114" y2="7.02218" gradientUnits="userSpaceOnUse">
<stop stop-color="#5E45FF"/>
<stop offset="1" stop-color="#0028B3"/>
</linearGradient>
<linearGradient id="paint1_linear_14_2985" x1="0.25" y1="15.5" x2="18.3114" y2="7.02218" gradientUnits="userSpaceOnUse">
<stop stop-color="#5E45FF"/>
<stop offset="1" stop-color="#0028B3"/>
</linearGradient>
<linearGradient id="paint2_linear_14_2985" x1="0.25" y1="15.5" x2="18.3114" y2="7.02218" gradientUnits="userSpaceOnUse">
<stop stop-color="#5E45FF"/>
<stop offset="1" stop-color="#0028B3"/>
</linearGradient>
</defs>
</svg>
